<svg width="19" height="10" viewBox="0 0 19 10" fill="none" xmlns="http://www.w3.org/2000/svg">
<path d="M9.25 2.0905L1.71725 9.62325C1.51858 9.82192 1.28208 9.91867 1.00775 9.9135C0.733417 9.90833 0.496833 9.80642 0.298 9.60775C0.0993329 9.40908 0 9.17258 0 8.89825C0 8.62392 0.0993329 8.38733 0.298 8.1885L7.96925 0.53275C8.15008 0.352083 8.35267 0.218166 8.577 0.131C8.80133 0.0436664 9.02567 0 9.25 0C9.47433 0 9.69867 0.0436664 9.923 0.131C10.1473 0.218166 10.3499 0.352083 10.5308 0.53275L18.202 8.204C18.4007 8.40267 18.4974 8.63658 18.4923 8.90575C18.4871 9.17508 18.3852 9.40908 18.1865 9.60775C17.9878 9.80642 17.7513 9.90575 17.477 9.90575C17.2027 9.90575 16.9661 9.80642 16.7673 9.60775L9.25 2.0905Z" fill="#334A54"/>
</svg>
