<svg width="13" height="8" viewBox="0 0 13 8" fill="none" xmlns="http://www.w3.org/2000/svg">
<path d="M6.16667 5.88197L1.14483 0.860135C1.01239 0.727691 0.854722 0.66319 0.671833 0.666635C0.488944 0.670079 0.331222 0.738024 0.198666 0.870468C0.0662219 1.00291 0 1.16058 0 1.34347C0 1.52636 0.0662219 1.68408 0.198666 1.81663L5.31283 6.92047C5.43339 7.04091 5.56844 7.13019 5.718 7.1883C5.86756 7.24652 6.01711 7.27563 6.16667 7.27563C6.31622 7.27563 6.46578 7.24652 6.61533 7.1883C6.76489 7.13019 6.89994 7.04091 7.0205 6.92047L12.1347 1.8063C12.2671 1.67386 12.3316 1.51791 12.3282 1.33847C12.3247 1.15891 12.2568 1.00291 12.1243 0.870468C11.9919 0.738024 11.8342 0.671801 11.6513 0.671801C11.4684 0.671801 11.3107 0.738024 11.1782 0.870468L6.16667 5.88197Z" fill="#001D29"/>
</svg>
