<svg width="13" height="8" viewBox="0 0 13 8" fill="none" xmlns="http://www.w3.org/2000/svg">
<path d="M6.16667 2.06017L1.14483 7.082C1.01239 7.21445 0.854722 7.27895 0.671833 7.2755C0.488944 7.27206 0.331222 7.20411 0.198666 7.07167C0.0662219 6.93923 0 6.78156 0 6.59867C0 6.41578 0.0662219 6.25806 0.198666 6.1255L5.31283 1.02167C5.43339 0.901226 5.56844 0.811948 5.718 0.753837C5.86756 0.695615 6.01711 0.666504 6.16667 0.666504C6.31622 0.666504 6.46578 0.695615 6.61533 0.753837C6.76489 0.811948 6.89994 0.901226 7.0205 1.02167L12.1347 6.13584C12.2671 6.26828 12.3316 6.42423 12.3282 6.60367C12.3247 6.78323 12.2568 6.93923 12.1243 7.07167C11.9919 7.20411 11.8342 7.27034 11.6513 7.27034C11.4684 7.27034 11.3107 7.20411 11.1782 7.07167L6.16667 2.06017Z" fill="#001D29"/>
</svg>
