<svg width="8" height="13" viewBox="0 0 8 13" fill="none" xmlns="http://www.w3.org/2000/svg">
<path d="M5.88197 6.16667L0.860135 1.14483C0.727691 1.01239 0.66319 0.854722 0.666635 0.671833C0.670079 0.488944 0.738024 0.331222 0.870468 0.198666C1.00291 0.0662219 1.16058 0 1.34347 0C1.52636 0 1.68408 0.0662219 1.81663 0.198666L6.92047 5.31283C7.04091 5.43339 7.13019 5.56844 7.1883 5.718C7.24652 5.86756 7.27563 6.01711 7.27563 6.16667C7.27563 6.31622 7.24652 6.46578 7.1883 6.61533C7.13019 6.76489 7.04091 6.89994 6.92047 7.0205L1.8063 12.1347C1.67386 12.2671 1.51791 12.3316 1.33847 12.3282C1.15891 12.3247 1.00291 12.2568 0.870468 12.1243C0.738024 11.9919 0.671801 11.8342 0.671801 11.6513C0.671801 11.4684 0.738024 11.3107 0.870468 11.1782L5.88197 6.16667Z" fill="#001D29"/>
</svg>
