<svg width="8" height="13" viewBox="0 0 8 13" fill="none" xmlns="http://www.w3.org/2000/svg">
<path d="M2.06017 6.16163L7.082 11.1835C7.21445 11.3159 7.27895 11.4736 7.2755 11.6565C7.27206 11.8394 7.20411 11.9971 7.07167 12.1296C6.93923 12.2621 6.78156 12.3283 6.59867 12.3283C6.41578 12.3283 6.25806 12.2621 6.1255 12.1296L1.02167 7.01546C0.901226 6.89491 0.811948 6.75985 0.753837 6.6103C0.695615 6.46074 0.666504 6.31119 0.666504 6.16163C0.666504 6.01208 0.695615 5.86252 0.753837 5.71296C0.811948 5.56341 0.901226 5.42835 1.02167 5.3078L6.13584 0.193631C6.26828 0.0611863 6.42423 -0.00331348 6.60367 0.000130963C6.78323 0.00357541 6.93923 0.0715195 7.07167 0.203964C7.20411 0.336408 7.27034 0.494075 7.27034 0.676964C7.27034 0.859853 7.20411 1.01758 7.07167 1.15013L2.06017 6.16163Z" fill="#001D29"/>
</svg>
