<svg width="19" height="10" viewBox="0 0 19 10" fill="none" xmlns="http://www.w3.org/2000/svg">
<path d="M9.25 7.8232L1.71725 0.290447C1.51858 0.0917802 1.28208 -0.00497022 1.00775 0.000196442C0.733417 0.00536311 0.496833 0.10728 0.298 0.305947C0.0993329 0.504613 0 0.741114 0 1.01545C0 1.28978 0.0993329 1.52636 0.298 1.7252L7.96925 9.38095C8.15008 9.56161 8.35267 9.69553 8.577 9.7827C8.80133 9.87003 9.02567 9.9137 9.25 9.9137C9.47433 9.9137 9.69867 9.87003 9.923 9.7827C10.1473 9.69553 10.3499 9.56161 10.5308 9.38095L18.202 1.7097C18.4007 1.51103 18.4974 1.27711 18.4923 1.00795C18.4871 0.738613 18.3852 0.504613 18.1865 0.305947C17.9878 0.10728 17.7513 0.00794638 17.477 0.00794638C17.2027 0.00794638 16.9661 0.10728 16.7673 0.305947L9.25 7.8232Z" fill="#334A54"/>
</svg>
