<svg width="10" height="6" viewBox="0 0 10 6" fill="none" xmlns="http://www.w3.org/2000/svg">
<path d="M4.625 4.4116L0.858625 0.645223C0.759292 0.54589 0.641042 0.497515 0.503875 0.500098C0.366708 0.502682 0.248416 0.55364 0.149 0.652973C0.0496665 0.752307 0 0.870557 0 1.00772C0 1.14489 0.0496665 1.26318 0.149 1.3626L3.98463 5.19047C4.07504 5.28081 4.17633 5.34776 4.2885 5.39135C4.40067 5.43502 4.51283 5.45685 4.625 5.45685C4.73717 5.45685 4.84933 5.43502 4.9615 5.39135C5.07367 5.34776 5.17496 5.28081 5.26538 5.19047L9.101 1.35485C9.20033 1.25552 9.24871 1.13856 9.24613 1.00397C9.24354 0.869307 9.19258 0.752307 9.09325 0.652973C8.99392 0.55364 8.87567 0.503973 8.7385 0.503973C8.60133 0.503973 8.48304 0.55364 8.38363 0.652973L4.625 4.4116Z" fill="#001D29"/>
</svg>
