<svg width="10" height="6" viewBox="0 0 10 6" fill="none" xmlns="http://www.w3.org/2000/svg">
<path d="M4.625 1.54525L0.858625 5.31163C0.759292 5.41096 0.641042 5.45933 0.503875 5.45675C0.366708 5.45417 0.248416 5.40321 0.149 5.30387C0.0496665 5.20454 0 5.08629 0 4.94912C0 4.81196 0.0496665 4.69367 0.149 4.59425L3.98463 0.766375C4.07504 0.676042 4.17633 0.609083 4.2885 0.5655C4.40067 0.521833 4.51283 0.5 4.625 0.5C4.73717 0.5 4.84933 0.521833 4.9615 0.5655C5.07367 0.609083 5.17496 0.676042 5.26538 0.766375L9.101 4.602C9.20033 4.70133 9.24871 4.81829 9.24613 4.95288C9.24354 5.08754 9.19258 5.20454 9.09325 5.30387C8.99392 5.40321 8.87567 5.45288 8.7385 5.45288C8.60133 5.45288 8.48304 5.40321 8.38363 5.30387L4.625 1.54525Z" fill="#001D29"/>
</svg>
