<svg width="10" height="10" viewBox="0 0 10 10" fill="none" xmlns="http://www.w3.org/2000/svg">
<path d="M4.41675 5.58317H1.50008C1.3348 5.58317 1.19626 5.52727 1.08446 5.41546C0.972651 5.30366 0.916748 5.16511 0.916748 4.99984C0.916748 4.83456 0.972651 4.69602 1.08446 4.58421C1.19626 4.47241 1.3348 4.4165 1.50008 4.4165H4.41675V1.49984C4.41675 1.33456 4.47265 1.19602 4.58446 1.08421C4.69626 0.972407 4.8348 0.916504 5.00008 0.916504C5.16536 0.916504 5.3039 0.972407 5.41571 1.08421C5.52751 1.19602 5.58341 1.33456 5.58341 1.49984V4.4165H8.50008C8.66536 4.4165 8.8039 4.47241 8.91571 4.58421C9.02751 4.69602 9.08341 4.83456 9.08341 4.99984C9.08341 5.16511 9.02751 5.30366 8.91571 5.41546C8.8039 5.52727 8.66536 5.58317 8.50008 5.58317H5.58341V8.49984C5.58341 8.66511 5.52751 8.80366 5.41571 8.91546C5.3039 9.02727 5.16536 9.08317 5.00008 9.08317C4.8348 9.08317 4.69626 9.02727 4.58446 8.91546C4.47265 8.80366 4.41675 8.66511 4.41675 8.49984V5.58317Z" fill="#001D29"/>
</svg>
