<svg width="8" height="8" viewBox="0 0 8 8" fill="none" xmlns="http://www.w3.org/2000/svg">
<path d="M4.04367 4.86009L1.18534 7.71842C1.07839 7.82537 0.94228 7.87884 0.777002 7.87884C0.611724 7.87884 0.475613 7.82537 0.368669 7.71842C0.261724 7.61148 0.208252 7.47537 0.208252 7.31009C0.208252 7.14481 0.261724 7.0087 0.368669 6.90176L3.227 4.04342L0.368669 1.18509C0.261724 1.07815 0.208252 0.942036 0.208252 0.776758C0.208252 0.61148 0.261724 0.475369 0.368669 0.368424C0.475613 0.26148 0.611724 0.208008 0.777002 0.208008C0.94228 0.208008 1.07839 0.26148 1.18534 0.368424L4.04367 3.22676L6.902 0.368424C7.00895 0.26148 7.14506 0.208008 7.31034 0.208008C7.47561 0.208008 7.61172 0.26148 7.71867 0.368424C7.82561 0.475369 7.87909 0.61148 7.87909 0.776758C7.87909 0.942036 7.82561 1.07815 7.71867 1.18509L4.86034 4.04342L7.71867 6.90176C7.82561 7.0087 7.87909 7.14481 7.87909 7.31009C7.87909 7.47537 7.82561 7.61148 7.71867 7.71842C7.61172 7.82537 7.47561 7.87884 7.31034 7.87884C7.14506 7.87884 7.00895 7.82537 6.902 7.71842L4.04367 4.86009Z" fill="#334A54"/>
</svg>
