<svg width="10" height="10" viewBox="0 0 10 10" fill="none" xmlns="http://www.w3.org/2000/svg">
<path d="M5.04984 5.98317L1.78317 9.24984C1.66095 9.37206 1.50539 9.43317 1.3165 9.43317C1.12762 9.43317 0.972059 9.37206 0.849837 9.24984C0.727615 9.12761 0.666504 8.97206 0.666504 8.78317C0.666504 8.59428 0.727615 8.43873 0.849837 8.3165L4.1165 5.04984L0.849837 1.78317C0.727615 1.66095 0.666504 1.50539 0.666504 1.3165C0.666504 1.12762 0.727615 0.972059 0.849837 0.849837C0.972059 0.727615 1.12762 0.666504 1.3165 0.666504C1.50539 0.666504 1.66095 0.727615 1.78317 0.849837L5.04984 4.1165L8.3165 0.849837C8.43873 0.727615 8.59428 0.666504 8.78317 0.666504C8.97206 0.666504 9.12761 0.727615 9.24984 0.849837C9.37206 0.972059 9.43317 1.12762 9.43317 1.3165C9.43317 1.50539 9.37206 1.66095 9.24984 1.78317L5.98317 5.04984L9.24984 8.3165C9.37206 8.43873 9.43317 8.59428 9.43317 8.78317C9.43317 8.97206 9.37206 9.12761 9.24984 9.24984C9.12761 9.37206 8.97206 9.43317 8.78317 9.43317C8.59428 9.43317 8.43873 9.37206 8.3165 9.24984L5.04984 5.98317Z" fill="#001D29"/>
</svg>
